<?xml version="1.0" encoding="UTF-8"?>
<svg width="256px" height="254px" viewBox="0 0 256 254" version="1.1" xmlns="http://www.w3.org/2000/svg" xmlns:xlink="http://www.w3.org/1999/xlink">
    <!-- Generator: Sketch 51.3 (57544) - http://www.bohemiancoding.com/sketch -->
    <title>Artboard 19 Copy</title>
    <desc>Created with Sketch.</desc>
    <defs></defs>
    <g id="Artboard-19-Copy" stroke="none" stroke-width="1" fill="none" fill-rule="evenodd">
        <path d="M233.365,73.605 C232.1025,73.605 230.8225,73.2825 229.65,72.6075 L131.78,16.1025 C129.45,14.7575 126.5525,14.7575 124.2225,16.1025 L59.49,53.4725 C55.93,55.5275 51.38,54.3075 49.325,50.7475 C47.27,47.1875 48.49,42.6375 52.05,40.5825 L116.78,3.2125 C123.7025,-0.7825 132.3,-0.7825 139.2225,3.2125 L237.095,59.72 C240.655,61.775 241.875,66.3275 239.82,69.885 C238.4375,72.2725 235.9375,73.605 233.365,73.605 Z" id="Shape" fill="#FFFFFF" fill-rule="nonzero"></path>
        <path d="M128,253.785 C124.12,253.785 120.24,252.785 116.78,250.7875 L26.4075,198.6125 C19.485,194.615 15.1875,187.17 15.1875,179.1775 L15.1875,106.3225 C15.1875,102.2125 18.52,98.88 22.63,98.88 C26.74,98.88 30.0725,102.2125 30.0725,106.3225 L30.0725,179.175 C30.0725,181.8675 31.52,184.375 33.8525,185.72 L124.225,237.8975 C126.555,239.2425 129.4525,239.2425 131.7825,237.8975 L222.155,185.72 C224.485,184.375 225.935,181.865 225.935,179.175 L225.935,136.575 C225.935,132.465 229.2675,129.1325 233.3775,129.1325 C237.4875,129.1325 240.82,132.465 240.82,136.575 L240.82,179.1775 C240.82,187.17 236.52,194.6175 229.6,198.6125 L139.2275,250.79 C135.76,252.7875 131.88,253.785 128,253.785 Z" id="Shape" fill="#FFFFFF" fill-rule="nonzero"></path>
        <path d="M127.9975,184.8475 C127.7675,184.8475 127.535,184.8375 127.3025,184.815 C125.0475,184.605 123.005,183.39 121.75,181.5025 C109.105,162.495 92.165,146.11 72.7575,134.1175 C52.605,121.665 30.45,114.04 6.9075,111.4575 C3.105,111.0375 0.2275,107.825 0.2275,104 L0.2275,64.95 C0.2275,62.915 1.055,60.965 2.52,59.5525 C3.985,58.14 5.9625,57.38 7.9975,57.455 C32.6075,58.3425 56.2375,64.2725 78.23,75.0825 C96.9875,84.3025 113.695,96.6275 128.0025,111.785 C142.3075,96.6275 159.0175,84.3 177.775,75.0825 C199.7675,64.2725 223.3975,58.3425 248.0075,57.455 C250.04,57.38 252.02,58.1375 253.485,59.5525 C254.95,60.965 255.7775,62.915 255.7775,64.95 L255.7775,104 C255.7775,107.825 252.8975,111.0375 249.095,111.455 C225.5525,114.0375 203.395,121.6625 183.2425,134.115 C163.8325,146.1075 146.8925,162.4925 134.2475,181.4975 C133.99,181.885 133.6975,182.2475 133.3725,182.58 C131.9525,184.035 130.01,184.8475 127.9975,184.8475 Z M15.2275,97.41 C25.8425,98.995 36.3025,101.565 46.41,105.0725 C58.3475,109.2175 69.8675,114.695 80.645,121.355 C91.2825,127.93 101.2425,135.68 110.25,144.3925 C116.6625,150.5975 122.605,157.3 127.9975,164.41 C133.39,157.3 139.335,150.5925 145.75,144.3875 C154.7575,135.675 164.7175,127.925 175.355,121.3525 C186.135,114.6925 197.6525,109.215 209.5925,105.07 C219.7,101.5625 230.16,98.9925 240.775,97.4075 L240.775,72.9075 C221.0825,74.565 202.15,79.81 184.39,88.54 C164.92,98.11 147.865,111.3425 133.695,127.875 C132.27,129.5375 130.19,130.495 128,130.495 C125.81,130.495 123.73,129.5375 122.305,127.875 C108.135,111.345 91.08,98.11 71.61,88.54 C53.85,79.81 34.9175,74.565 15.225,72.9075 L15.225,97.41 L15.2275,97.41 Z" id="Shape" fill="#FFFFFF" fill-rule="nonzero"></path>
        <path d="M128,184.845 C123.8575,184.845 120.5,181.4875 120.5,177.345 L120.5,122.9975 C120.5,118.855 123.8575,115.4975 128,115.4975 C132.1425,115.4975 135.5,118.855 135.5,122.9975 L135.5,177.3425 C135.5,181.485 132.1425,184.845 128,184.845 Z" id="Shape" fill="#FFFFFF" fill-rule="nonzero"></path>
    </g>
</svg>